<?xml version="1.0" encoding="utf-8"?>
<!DOCTYPE svg PUBLIC "-//W3C//DTD SVG 1.1//EN" "http://www.w3.org/Graphics/SVG/1.1/DTD/svg11.dtd">
<svg style="width:308px;height:308px;" version="1.1" id="图形" xmlns="http://www.w3.org/2000/svg" xmlns:xlink="http://www.w3.org/1999/xlink" x="0px" y="0px" width="1024px" height="1024px" viewBox="0 0 1024 1024" enable-background="new 0 0 1024 1024" xml:space="preserve">
  <path class="svgpath" data-index="path_0" fill="#000000" d="M787.696941 669.515294c0 44.935529-23.431529 118.181647-78.787765 118.181647-55.416471 0-78.848-73.246118-78.848-118.181647 0-44.875294 23.431529-118.181647 78.848-118.181647 55.356235 0 78.787765 73.306353 78.787765 118.181647zM315.090824 551.333647c-55.356235 0-78.787765 73.306353-78.787765 118.181647 0 44.935529 23.431529 118.181647 78.787765 118.181647 55.356235 0 78.787765-73.246118 78.787765-118.181647 0-44.875294-23.431529-118.181647-78.787765-118.181647zM1024 561.212235c0 68.367059-6.746353 140.950588-37.526588 203.715765-81.257412 164.321882-304.609882 180.284235-464.594824 180.284235-162.454588 0-399.36-14.095059-483.689412-180.284235-31.442824-62.162824-38.189176-135.348706-38.189176-203.715765 0-89.871059 24.636235-174.742588 83.727059-243.651765-11.083294-33.852235-16.624941-69.571765-16.624941-104.688941 0-46.140235 10.420706-92.220235 31.382588-134.144 97.219765 0 159.382588 42.465882 233.231059 100.291765 62.162824-14.757647 126.132706-21.504 190.162824-21.504 57.825882 0 116.314353 6.204235 172.333176 19.696941 73.246118-57.223529 135.348706-98.484706 231.363765-98.484706 20.961882 41.863529 31.382588 88.003765 31.382588 134.144 0 35.117176-5.541647 70.174118-16.624941 103.424 59.090824 69.511529 83.666824 155.045647 83.666824 244.916706zM886.121412 669.515294c0-94.147765-57.163294-177.212235-157.515294-177.212235-40.598588 0-79.329882 7.408941-119.988706 12.950588-31.984941 4.939294-63.969882 6.746353-96.617412 6.746353s-64.632471-1.807059-96.617412-6.746353c-39.996235-5.541647-79.390118-12.950588-119.988706-12.950588-100.291765 0-157.515294 83.064471-157.515294 177.212235 0 188.295529 172.272941 217.208471 322.439529 217.208471l103.424 0c150.166588 0.060235 322.379294-28.912941 322.379294-217.208471z" />

</svg>
